# xmcd
#
# Track frame offsets:
#	150
#	17085
#	29665
#	45280
#	61752
#	77234
#	95326
#	110226
#	126244
#	143347
#	158883
#	172708
#	186340
#	202244
#	216541
#
# Disc length: 3055 seconds
#
# Revision: 1
# Processed by: cddbd v1.5.2PL0 Copyright (c) Steve Scherf et al.
# Submitted via: audiograbber 1.83.01
#
DISCID=d20bed0f
DTITLE=Various Artist - CDX Volume 553 (August 22, 2012)
DYEAR=2012
DGENRE=Country
TTITLE0=Tyler Farr - Hello Goodbye 
TTITLE1=Toby Keith - I Like Girls That Drink Beer
TTITLE2=Kacey Musgraves - Merry Go 'Round 
TTITLE3=Tim Dugger - Tennessee
TTITLE4=Dierks Bentley - Tip It On Back
TTITLE5=Darius Rucker - True Believers
TTITLE6=Alan Jackson - You Go Your Way
TTITLE7=Craig Morgan - More Trucks Than Cars 
TTITLE8=Heidi Newfield - Why'd You Have to Be So Good
TTITLE9=Borrowed Blue - Porch People
TTITLE10=Lori Smith - Feisty Woman
TTITLE11=High Valley - Love You For A Long Time
TTITLE12=Vince Hatfield - Sometimes You Gotta Get Away
TTITLE13=Tracy DeLucia - Stand By Your Man (The Hell I Am!)
TTITLE14=Derek Anthony - Wanted Man
EXTD=
EXTT0=
EXTT1=
EXTT2=
EXTT3=
EXTT4=
EXTT5=
EXTT6=
EXTT7=
EXTT8=
EXTT9=
EXTT10=
EXTT11=
EXTT12=
EXTT13=
EXTT14=
PLAYORDER=
